<svg width="40" height="40" viewBox="0 0 40 40" fill="none" xmlns="http://www.w3.org/2000/svg">
<path fill-rule="evenodd" clip-rule="evenodd" d="M10.81 6.98828C9.39825 6.98828 7.64091 7.685 7.10251 9.93633C6.49888 12.4604 5.82997 15.3607 5.34255 17.474L5.17486 18.201C4.98276 19.0333 5.1452 19.686 5.45998 20.1098C5.76745 20.5238 6.30462 20.835 7.11527 20.835H7.98878C8.18083 20.835 8.32342 21.0129 8.28158 21.2003L8.09124 22.0529L7.83603 23.1959C7.77636 23.4632 8.0766 23.6641 8.30092 23.507L11.858 21.0159L12.0388 20.8892C12.0892 20.8539 12.1493 20.835 12.2109 20.835H12.4316H14.2329C14.3521 20.835 14.4594 20.7639 14.5108 20.6564C15.6034 18.3715 17.9658 17.2247 19.7813 17.2246H24.0602C24.1843 17.2246 24.2911 17.1368 24.3151 17.015C24.4377 16.3934 24.6059 15.5428 24.7882 14.6273C25.152 12.8003 25.5747 10.7022 25.8028 9.65515C25.9755 8.8618 25.8122 8.20347 25.4714 7.76022C25.1388 7.32773 24.5519 6.98828 23.6393 6.98828H23.6253H23.6113H23.5971H23.5828H23.5683H23.5537H23.5389H23.524H23.5089H23.4937H23.4784H23.4629H23.4473H23.4316H23.4157H23.3997H23.3835H23.3672H23.3508H23.3342H23.3175H23.3007H23.2837H23.2666H23.2494H23.232H23.2145H23.1969H23.1791H23.1612H23.1432H23.1251H23.1068H23.0884H23.0699H23.0513H23.0325H23.0136H22.9946H22.9755H22.9562H22.9368H22.9173H22.8977H22.878H22.8581H22.8381H22.818H22.7978H22.7775H22.7571H22.7365H22.7158H22.695H22.6741H22.6531H22.632H22.6107H22.5894H22.5679H22.5463H22.5247H22.5029H22.481H22.4589H22.4368H22.4146H22.3923H22.3698H22.3473H22.3247H22.3019H22.2791H22.2561H22.2331H22.2099H22.1866H22.1633H22.1398H22.1163H22.0926H22.0689H22.045H22.0211H21.997H21.9729H21.9487H21.9244H21.8999H21.8754H21.8508H21.8261H21.8014H21.7765H21.7515H21.7265H21.7013H21.6761H21.6508H21.6254H21.5999H21.5743H21.5486H21.5229H21.4971H21.4712H21.4452H21.4191H21.3929H21.3667H21.3404H21.314H21.2875H21.2609H21.2343H21.2076H21.1808H21.1539H21.127H21.1H21.0729H21.0457H21.0185H20.9912H20.9638H20.9364H20.9089H20.8813H20.8536H20.8259H20.7981H20.7702H20.7423H20.7143H20.6862H20.6581H20.6299H20.6016H20.5733H20.5449H20.5165H20.488H20.4594H20.4308H20.4021H20.3733H20.3445H20.3157H20.2867H20.2578H20.2287H20.1996H20.1705H20.1413H20.112H20.0827H20.0534H20.024H19.9945H19.965H19.9354H19.9058H19.8761H19.8464H19.8167H19.7869H19.757H19.7271H19.6972H19.6672H19.6371H19.6071H19.5769H19.5468H19.5166H19.4863H19.456H19.4257H19.3953H19.3649H19.3345H19.304H19.2735H19.2429H19.2123H19.1817H19.151H19.1204H19.0896H19.0589H19.0281H18.9972H18.9664H18.9355H18.9046H18.8736H18.8427H18.8117H18.7806H18.7496H18.7185H18.6874H18.6562H18.6251H18.5939H18.5627H18.5315H18.5002H18.469H18.4377H18.4063H18.375H18.3437H18.3123H18.2809H18.2495H18.2181H18.1866H18.1552H18.1237H18.0922H18.0607H18.0292H17.9977H17.9662H17.9346H17.9031H17.8715H17.8399H17.8083H17.7767H17.7451H17.7135H17.6819H17.6503H17.6187H17.587H17.5554H17.5238H17.4921H17.4605H17.4288H17.3972H17.3656H17.3339H17.3023H17.2706H17.239H17.2073H17.1757H17.1441H17.1124H17.0808H17.0492H17.0176H16.986H16.9544H16.9228H16.8912H16.8596H16.8281H16.7965H16.765H16.7334H16.7019H16.6704H16.6389H16.6075H16.576H16.5445H16.5131H16.4817H16.4503H16.4189H16.3875H16.3562H16.3249H16.2936H16.2623H16.231H16.1998H16.1685H16.1373H16.1062H16.075H16.0439H16.0128H15.9817H15.9507H15.9196H15.8887H15.8577H15.8268H15.7958H15.765H15.7341H15.7033H15.6725H15.6418H15.6111H15.5804H15.5497H15.5191H15.4885H15.458H15.4275H15.397H15.3666H15.3362H15.3058H15.2755H15.2452H15.215H15.1848H15.1547H15.1245H15.0945H15.0645H15.0345H15.0046H14.9747H14.9448H14.915H14.8853H14.8556H14.8259H14.7963H14.7668H14.7373H14.7078H14.6784H14.6491H14.6198H14.5906H14.5614H14.5323H14.5032H14.4742H14.4452H14.4163H14.3875H14.3587H14.3299H14.3013H14.2727H14.2441H14.2156H14.1872H14.1588H14.1305H14.1023H14.0741H14.046H14.018H13.99H13.9621H13.9342H13.9064H13.8787H13.8511H13.8235H13.796H13.7686H13.7412H13.714H13.6868H13.6596H13.6325H13.6056H13.5786H13.5518H13.525H13.4983H13.4717H13.4452H13.4188H13.3924H13.3661H13.3399H13.3137H13.2877H13.2617H13.2358H13.21H13.1843H13.1587H13.1331H13.1077H13.0823H13.057H13.0318H13.0067H12.9817H12.9567H12.9319H12.9071H12.8825H12.8579H12.8334H12.809H12.7847H12.7605H12.7364H12.7124H12.6885H12.6647H12.641H12.6173H12.5938H12.5704H12.5471H12.5238H12.5007H12.4777H12.4548H12.4319H12.4092H12.3866H12.3641H12.3417H12.3194H12.2972H12.2751H12.2532H12.2313H12.2095H12.1879H12.1663H12.1449H12.1236H12.1024H12.0813H12.0603H12.0394H12.0187H11.998H11.9775H11.9571H11.9368H11.9166H11.8966H11.8766H11.8568H11.8371H11.8175H11.7981H11.7787H11.7595H11.7404H11.7214H11.7026H11.6838H11.6652H11.6468H11.6284H11.6102H11.5921H11.5741H11.5563H11.5386H11.521H11.5035H11.4862H11.469H11.452H11.435H11.4182H11.4016H11.3851H11.3687H11.3524H11.3363H11.3203H11.3045H11.2888H11.2732H11.2578H11.2425H11.2273H11.2123H11.1974H11.1827H11.1681H11.1537H11.1394H11.1253H11.1113H11.0974H11.0837H11.0701H11.0567H11.0434H11.0303H11.0173H11.0045H10.9918H10.9793H10.9669H10.9547H10.9427H10.9307H10.919H10.9074H10.8959H10.8847H10.8735H10.8625H10.8517H10.8411H10.8306H10.8202H10.81ZM13.4802 22.835C13.6735 22.835 13.8164 23.0152 13.7722 23.2034C13.6588 23.6863 13.5422 24.1822 13.425 24.6808L13.4234 24.6876C12.979 26.5776 12.5258 28.5051 12.2077 29.9076C11.583 32.6623 13.7475 35.0065 16.0636 35.0065H16.0735H16.0837H16.094H16.1046H16.1153H16.1262H16.1372H16.1485H16.1599H16.1715H16.1833H16.1953H16.2074H16.2197H16.2322H16.2449H16.2577H16.2707H16.2839H16.2973H16.3108H16.3245H16.3384H16.3524H16.3666H16.381H16.3955H16.4102H16.4251H16.4401H16.4553H16.4707H16.4862H16.5019H16.5177H16.5337H16.5499H16.5662H16.5826H16.5993H16.6161H16.633H16.6501H16.6674H16.6848H16.7023H16.72H16.7379H16.7559H16.7741H16.7924H16.8108H16.8294H16.8482H16.8671H16.8861H16.9053H16.9246H16.9441H16.9637H16.9835H17.0034H17.0234H17.0436H17.0639H17.0844H17.105H17.1257H17.1466H17.1676H17.1887H17.21H17.2314H17.2529H17.2746H17.2964H17.3183H17.3404H17.3625H17.3849H17.4073H17.4299H17.4526H17.4754H17.4983H17.5214H17.5446H17.5679H17.5913H17.6149H17.6385H17.6623H17.6862H17.7103H17.7344H17.7587H17.783H17.8075H17.8321H17.8569H17.8817H17.9066H17.9317H17.9569H17.9821H18.0075H18.033H18.0586H18.0843H18.1101H18.136H18.1621H18.1882H18.2144H18.2407H18.2672H18.2937H18.3204H18.3471H18.3739H18.4009H18.4279H18.455H18.4822H18.5095H18.537H18.5645H18.5921H18.6198H18.6475H18.6754H18.7034H18.7314H18.7596H18.7878H18.8161H18.8445H18.873H18.9016H18.9302H18.959H18.9878H19.0167H19.0457H19.0748H19.1039H19.1332H19.1625H19.1919H19.2213H19.2509H19.2805H19.3102H19.3399H19.3698H19.3997H19.4297H19.4597H19.4898H19.52H19.5503H19.5806H19.611H19.6415H19.672H19.7026H19.7333H19.764H19.7948H19.8257H19.8566H19.8876H19.9186H19.9497H19.9809H20.0121H20.0433H20.0747H20.1061H20.1375H20.169H20.2005H20.2321H20.2638H20.2955H20.3273H20.3591H20.3909H20.4228H20.4548H20.4868H20.5188H20.5509H20.5831H20.6153H20.6475H20.6798H20.7121H20.7444H20.7768H20.8092H20.8417H20.8742H20.9068H20.9394H20.972H21.0047H21.0374H21.0701H21.1029H21.1357H21.1685H21.2013H21.2342H21.2672H21.3001H21.3331H21.3661H21.3991H21.4322H21.4653H21.4984H21.5315H21.5647H21.5979H21.6311H21.6643H21.6975H21.7308H21.7641H21.7974H21.8307H21.8641H21.8974H21.9308H21.9642H21.9976H22.031H22.0644H22.0978H22.1313H22.1647H22.1982H22.2317H22.2652H22.2987H22.3322H22.3657H22.3992H22.4327H22.4662H22.4997H22.5332H22.5668H22.6003H22.6338H22.6674H22.7009H22.7344H22.7679H22.8014H22.835H22.8685H22.902H22.9355H22.969H23.0024H23.0359H23.0694H23.1028H23.1363H23.1697H23.2031H23.2365H23.2699H23.3033H23.3367H23.37H23.4034H23.4367H23.47H23.5033H23.5365H23.5698H23.603H23.6362H23.6694H23.7025H23.7356H23.7687H23.8018H23.8349H23.8679H23.9009H23.9339H23.9668H23.9997H24.0326H24.0655H24.0983H24.1311H24.1638H24.1966H24.2292H24.2619H24.2945H24.3271H24.3596H24.3921H24.4246H24.457H24.4894H24.5218H24.5541H24.5863H24.6185H24.6507H24.6828H24.7149H24.747H24.7789H24.8109H24.8428H24.8746H24.9064H24.9382H24.9699H25.0015H25.0331H25.0646H25.0961H25.1275H25.1589H25.1902H25.2215H25.2527H25.2838H25.3149H25.3459H25.3769H25.4078H25.4386H25.4694H25.5001H25.5307H25.5613H25.5918H25.6223H25.6527H25.683H25.7132H25.7434H25.7735H25.8036H25.8335H25.8634H25.8932H25.923H25.9526H25.9822H26.0118H26.0412H26.0706H26.0999H26.1291H26.1582H26.1872H26.2162H26.2451H26.2739H26.3026H26.3313H26.3598H26.3883H26.4167H26.445H26.4732H26.5013H26.5293H26.5573H26.5851H26.6129H26.6405H26.6681H26.6956H26.723H26.7503H26.7775H26.8046H26.8316H26.8585H26.8853H26.912H26.9386H26.9651H26.9915H27.0178H27.044H27.0701H27.0961H27.122H27.1478H27.1735H27.1991H27.2245H27.2499H27.2751H27.3003H27.3253H27.3502H27.375H27.3997H27.4243H27.4487H27.4731H27.4973H27.5214H27.5454H27.5693H27.5931H27.6167H27.6402H27.6636H27.6869H27.71H27.7331H27.756H27.7788H27.8014H27.824H27.8464H27.8687H27.8908H27.9128H27.9347H27.9565H27.9781H27.9996H28.021H28.0422H28.0633H28.0843H28.1051H28.1258H28.1464H28.1668H28.1871H28.2072H28.2272H28.2471H28.2668H28.2864H28.3058H28.3251H28.3443H28.3633H28.3821H28.4008H28.4194H28.4378H28.4561H28.4742H28.4922H28.51H28.5277H28.5452H28.5626H28.5798H28.5968H28.6137H28.6305H28.6471H28.6635H28.6798H28.6959H28.7119H28.7277H28.7433H28.7588H28.7741H28.7892H28.8042H28.8191H28.8337H28.8482H28.8625H28.8767H28.8907H28.9045H28.9182H28.9316H28.9449H28.9581H28.9711H28.9838H28.9965H29.0089H29.0212H29.0333H29.0452H29.0569H29.0685H29.0799H29.0911H29.1021H29.113H29.1236H29.1341H29.1444H29.1545H29.1644H29.1742C31.22 35.0065 34.1146 33.4197 34.8381 30.3323C35.053 29.4154 35.2848 28.4235 35.518 27.4251L35.519 27.4211L35.5193 27.4195C35.9414 25.613 36.3684 23.7859 36.7089 22.3445C37.0307 20.9825 36.8027 19.692 36.0671 18.7243C35.6259 18.1437 35.0329 17.7206 34.348 17.4745C34.1982 17.4208 34.105 17.2666 34.1395 17.1113L34.6133 14.982C34.8924 13.7278 33.4761 12.7916 32.4315 13.5397L27.3654 17.1685C27.3144 17.205 27.2534 17.2246 27.1907 17.2246H26.6277C26.4643 17.2246 26.3417 17.0755 26.3733 16.9152C26.4815 16.3677 26.6115 15.7114 26.7497 15.0179C27.1145 13.186 27.5335 11.1069 27.7569 10.0808C28.0357 8.80091 27.8091 7.51941 27.0569 6.54112C26.2964 5.55207 25.0872 4.98828 23.6393 4.98828H23.6253H23.6113H23.5971H23.5828H23.5683H23.5537H23.5389H23.524H23.5089H23.4937H23.4784H23.4629H23.4473H23.4316H23.4157H23.3997H23.3835H23.3672H23.3508H23.3342H23.3175H23.3007H23.2837H23.2666H23.2494H23.232H23.2145H23.1969H23.1791H23.1612H23.1432H23.1251H23.1068H23.0884H23.0699H23.0513H23.0325H23.0136H22.9946H22.9755H22.9562H22.9368H22.9173H22.8977H22.878H22.8581H22.8381H22.818H22.7978H22.7775H22.7571H22.7365H22.7158H22.695H22.6741H22.6531H22.632H22.6107H22.5894H22.5679H22.5463H22.5247H22.5029H22.481H22.4589H22.4368H22.4146H22.3923H22.3698H22.3473H22.3247H22.3019H22.2791H22.2561H22.2331H22.2099H22.1866H22.1633H22.1398H22.1163H22.0926H22.0689H22.045H22.0211H21.997H21.9729H21.9487H21.9244H21.8999H21.8754H21.8508H21.8261H21.8014H21.7765H21.7515H21.7265H21.7013H21.6761H21.6508H21.6254H21.5999H21.5743H21.5486H21.5229H21.4971H21.4712H21.4452H21.4191H21.3929H21.3667H21.3404H21.314H21.2875H21.2609H21.2343H21.2076H21.1808H21.1539H21.127H21.1H21.0729H21.0457H21.0185H20.9912H20.9638H20.9364H20.9089H20.8813H20.8536H20.8259H20.7981H20.7702H20.7423H20.7143H20.6862H20.6581H20.6299H20.6016H20.5733H20.5449H20.5165H20.488H20.4594H20.4308H20.4021H20.3733H20.3445H20.3157H20.2867H20.2578H20.2287H20.1996H20.1705H20.1413H20.112H20.0827H20.0534H20.024H19.9945H19.965H19.9354H19.9058H19.8761H19.8464H19.8167H19.7869H19.757H19.7271H19.6972H19.6672H19.6371H19.6071H19.5769H19.5468H19.5166H19.4863H19.456H19.4257H19.3953H19.3649H19.3345H19.304H19.2735H19.2429H19.2123H19.1817H19.151H19.1204H19.0896H19.0589H19.0281H18.9972H18.9664H18.9355H18.9046H18.8736H18.8427H18.8117H18.7806H18.7496H18.7185H18.6874H18.6562H18.6251H18.5939H18.5627H18.5315H18.5002H18.469H18.4377H18.4063H18.375H18.3437H18.3123H18.2809H18.2495H18.2181H18.1866H18.1552H18.1237H18.0922H18.0607H18.0292H17.9977H17.9662H17.9346H17.9031H17.8715H17.8399H17.8083H17.7767H17.7451H17.7135H17.6819H17.6503H17.6187H17.587H17.5554H17.5238H17.4921H17.4605H17.4288H17.3972H17.3656H17.3339H17.3023H17.2706H17.239H17.2073H17.1757H17.1441H17.1124H17.0808H17.0492H17.0176H16.986H16.9544H16.9228H16.8912H16.8596H16.8281H16.7965H16.765H16.7334H16.7019H16.6704H16.6389H16.6075H16.576H16.5445H16.5131H16.4817H16.4503H16.4189H16.3875H16.3562H16.3249H16.2936H16.2623H16.231H16.1998H16.1685H16.1373H16.1062H16.075H16.0439H16.0128H15.9817H15.9507H15.9196H15.8887H15.8577H15.8268H15.7958H15.765H15.7341H15.7033H15.6725H15.6418H15.6111H15.5804H15.5497H15.5191H15.4885H15.458H15.4275H15.397H15.3666H15.3362H15.3058H15.2755H15.2452H15.215H15.1848H15.1547H15.1245H15.0945H15.0645H15.0345H15.0046H14.9747H14.9448H14.915H14.8853H14.8556H14.8259H14.7963H14.7668H14.7373H14.7078H14.6784H14.6491H14.6198H14.5906H14.5614H14.5323H14.5032H14.4742H14.4452H14.4163H14.3875H14.3587H14.3299H14.3013H14.2727H14.2441H14.2156H14.1872H14.1588H14.1305H14.1023H14.0741H14.046H14.018H13.99H13.9621H13.9342H13.9064H13.8787H13.8511H13.8235H13.796H13.7686H13.7412H13.714H13.6868H13.6596H13.6325H13.6056H13.5786H13.5518H13.525H13.4983H13.4717H13.4452H13.4188H13.3924H13.3661H13.3399H13.3137H13.2877H13.2617H13.2358H13.21H13.1843H13.1587H13.1331H13.1077H13.0823H13.057H13.0318H13.0067H12.9817H12.9567H12.9319H12.9071H12.8825H12.8579H12.8334H12.809H12.7847H12.7605H12.7364H12.7124H12.6885H12.6647H12.641H12.6173H12.5938H12.5704H12.5471H12.5238H12.5007H12.4777H12.4548H12.4319H12.4092H12.3866H12.3641H12.3417H12.3194H12.2972H12.2751H12.2532H12.2313H12.2095H12.1879H12.1663H12.1449H12.1236H12.1024H12.0813H12.0603H12.0394H12.0187H11.998H11.9775H11.9571H11.9368H11.9166H11.8966H11.8766H11.8568H11.8371H11.8175H11.7981H11.7787H11.7595H11.7404H11.7214H11.7026H11.6838H11.6652H11.6468H11.6284H11.6102H11.5921H11.5741H11.5563H11.5386H11.521H11.5035H11.4862H11.469H11.452H11.435H11.4182H11.4016H11.3851H11.3687H11.3524H11.3363H11.3203H11.3045H11.2888H11.2732H11.2578H11.2425H11.2273H11.2123H11.1974H11.1827H11.1681H11.1537H11.1394H11.1253H11.1113H11.0974H11.0837H11.0701H11.0567H11.0434H11.0303H11.0173H11.0045H10.9918H10.9793H10.9669H10.9547H10.9427H10.9307H10.919H10.9074H10.8959H10.8847H10.8735H10.8625H10.8517H10.8411H10.8306H10.8202H10.81C8.77342 4.98828 5.97382 6.05711 5.15736 9.47114C4.5517 12.0037 3.88086 14.9124 3.39366 17.0248L3.22609 17.7512C2.92549 19.0536 3.13253 20.3304 3.85436 21.3023C4.30043 21.9029 4.91021 22.3422 5.62901 22.5929C5.78034 22.6456 5.87503 22.8007 5.84011 22.9571L5.37862 25.0242C5.10014 26.2715 6.50126 27.2091 7.54809 26.476L12.6695 22.8892C12.7199 22.8539 12.78 22.835 12.8416 22.835H13.4802ZM27.6082 19.2244L27.6071 19.2246H27.6038H27.5907H27.5393H27.3426H26.6276H24.3411H19.7814C18.4511 19.2247 16.5101 20.2755 16.0279 22.3419C15.8222 23.2236 15.5957 24.1871 15.3674 25.1579C14.9243 27.0424 14.4745 28.955 14.1582 30.3499C13.8226 31.83 15.0065 33.0065 16.0636 33.0065H16.0735H16.0837H16.094H16.1046H16.1153H16.1262H16.1372H16.1485H16.1599H16.1715H16.1833H16.1953H16.2074H16.2197H16.2322H16.2449H16.2577H16.2707H16.2839H16.2973H16.3108H16.3245H16.3384H16.3524H16.3666H16.381H16.3955H16.4102H16.4251H16.4401H16.4553H16.4707H16.4862H16.5019H16.5177H16.5337H16.5499H16.5662H16.5826H16.5993H16.6161H16.633H16.6501H16.6674H16.6848H16.7023H16.72H16.7379H16.7559H16.7741H16.7924H16.8108H16.8294H16.8482H16.8671H16.8861H16.9053H16.9246H16.9441H16.9637H16.9835H17.0034H17.0234H17.0436H17.0639H17.0844H17.105H17.1257H17.1466H17.1676H17.1887H17.21H17.2314H17.2529H17.2746H17.2964H17.3183H17.3404H17.3625H17.3849H17.4073H17.4299H17.4526H17.4754H17.4983H17.5214H17.5446H17.5679H17.5913H17.6149H17.6385H17.6623H17.6862H17.7103H17.7344H17.7587H17.783H17.8075H17.8321H17.8569H17.8817H17.9066H17.9317H17.9569H17.9821H18.0075H18.033H18.0586H18.0843H18.1101H18.136H18.1621H18.1882H18.2144H18.2407H18.2672H18.2937H18.3204H18.3471H18.3739H18.4009H18.4279H18.455H18.4822H18.5095H18.537H18.5645H18.5921H18.6198H18.6475H18.6754H18.7034H18.7314H18.7596H18.7878H18.8161H18.8445H18.873H18.9016H18.9302H18.959H18.9878H19.0167H19.0457H19.0748H19.1039H19.1332H19.1625H19.1919H19.2213H19.2509H19.2805H19.3102H19.3399H19.3698H19.3997H19.4297H19.4597H19.4898H19.52H19.5503H19.5806H19.611H19.6415H19.672H19.7026H19.7333H19.764H19.7948H19.8257H19.8566H19.8876H19.9186H19.9497H19.9809H20.0121H20.0433H20.0747H20.1061H20.1375H20.169H20.2005H20.2321H20.2638H20.2955H20.3273H20.3591H20.3909H20.4228H20.4548H20.4868H20.5188H20.5509H20.5831H20.6153H20.6475H20.6798H20.7121H20.7444H20.7768H20.8092H20.8417H20.8742H20.9068H20.9394H20.972H21.0047H21.0374H21.0701H21.1029H21.1357H21.1685H21.2013H21.2342H21.2672H21.3001H21.3331H21.3661H21.3991H21.4322H21.4653H21.4984H21.5315H21.5647H21.5979H21.6311H21.6643H21.6975H21.7308H21.7641H21.7974H21.8307H21.8641H21.8974H21.9308H21.9642H21.9976H22.031H22.0644H22.0978H22.1313H22.1647H22.1982H22.2317H22.2652H22.2987H22.3322H22.3657H22.3992H22.4327H22.4662H22.4997H22.5332H22.5668H22.6003H22.6338H22.6674H22.7009H22.7344H22.7679H22.8014H22.835H22.8685H22.902H22.9355H22.969H23.0024H23.0359H23.0694H23.1028H23.1363H23.1697H23.2031H23.2365H23.2699H23.3033H23.3367H23.37H23.4034H23.4367H23.47H23.5033H23.5365H23.5698H23.603H23.6362H23.6694H23.7025H23.7356H23.7687H23.8018H23.8349H23.8679H23.9009H23.9339H23.9668H23.9997H24.0326H24.0655H24.0983H24.1311H24.1638H24.1966H24.2292H24.2619H24.2945H24.3271H24.3596H24.3921H24.4246H24.457H24.4894H24.5218H24.5541H24.5863H24.6185H24.6507H24.6828H24.7149H24.747H24.7789H24.8109H24.8428H24.8746H24.9064H24.9382H24.9699H25.0015H25.0331H25.0646H25.0961H25.1275H25.1589H25.1902H25.2215H25.2527H25.2838H25.3149H25.3459H25.3769H25.4078H25.4386H25.4694H25.5001H25.5307H25.5613H25.5918H25.6223H25.6527H25.683H25.7132H25.7434H25.7735H25.8036H25.8335H25.8634H25.8932H25.923H25.9526H25.9822H26.0118H26.0412H26.0706H26.0999H26.1291H26.1582H26.1872H26.2162H26.2451H26.2739H26.3026H26.3313H26.3598H26.3883H26.4167H26.445H26.4732H26.5013H26.5293H26.5573H26.5851H26.6129H26.6405H26.6681H26.6956H26.723H26.7503H26.7775H26.8046H26.8316H26.8585H26.8853H26.912H26.9386H26.9651H26.9915H27.0178H27.044H27.0701H27.0961H27.122H27.1478H27.1735H27.1991H27.2245H27.2499H27.2751H27.3003H27.3253H27.3502H27.375H27.3997H27.4243H27.4487H27.4731H27.4973H27.5214H27.5454H27.5693H27.5931H27.6167H27.6402H27.6636H27.6869H27.71H27.7331H27.756H27.7788H27.8014H27.824H27.8464H27.8687H27.8908H27.9128H27.9347H27.9565H27.9781H27.9996H28.021H28.0422H28.0633H28.0843H28.1051H28.1258H28.1464H28.1668H28.1871H28.2072H28.2272H28.2471H28.2668H28.2864H28.3058H28.3251H28.3443H28.3633H28.3821H28.4008H28.4194H28.4378H28.4561H28.4742H28.4922H28.51H28.5277H28.5452H28.5626H28.5798H28.5968H28.6137H28.6305H28.6471H28.6635H28.6798H28.6959H28.7119H28.7277H28.7433H28.7588H28.7741H28.7892H28.8042H28.8191H28.8337H28.8482H28.8625H28.8767H28.8907H28.9045H28.9182H28.9316H28.9449H28.9581H28.9711H28.9838H28.9965H29.0089H29.0212H29.0333H29.0452H29.0569H29.0685H29.0799H29.0911H29.1021H29.113H29.1236H29.1341H29.1444H29.1545H29.1644H29.1742C30.4217 33.0065 32.4077 31.9379 32.8909 29.8759C33.1038 28.9674 33.3338 27.9831 33.5655 26.9912L33.567 26.985L33.5696 26.9739C33.9925 25.1638 34.4211 23.3296 34.7625 21.8846C34.97 21.0061 34.7918 20.3516 34.4748 19.9345C34.1588 19.5187 33.6194 19.2246 32.8673 19.2246H31.9945C31.8025 19.2246 31.6599 19.0468 31.7016 18.8594L31.8912 18.0074L32.1497 16.8456C32.2095 16.5769 31.906 16.3763 31.6822 16.5366L28.1905 19.0376L27.9929 19.1791C27.9516 19.2087 27.9021 19.2246 27.8513 19.2246C27.7171 19.2246 27.6082 19.1158 27.6082 18.9815V18.2246V19.2244ZM19.5245 9.27828C19.1684 9.1289 18.7837 9.05986 18.3979 9.07604H12.6407C12.3872 9.07591 12.1411 9.16162 11.9426 9.31922C11.7441 9.47685 11.6049 9.69711 11.5479 9.94404L9.71185 17.8995C9.67824 18.0428 9.67307 18.1918 9.69692 18.337C9.72079 18.4824 9.77314 18.6217 9.85097 18.7469C9.92879 18.872 10.0306 18.9806 10.1504 19.0663C10.2703 19.1521 10.4059 19.2134 10.5495 19.2467L10.552 19.2473C10.6347 19.2656 10.719 19.2748 10.8036 19.275C11.0576 19.2761 11.3043 19.1907 11.5032 19.0328C11.702 18.875 11.841 18.6541 11.8972 18.4066L12.5052 15.7947H17.4767C18.5631 15.7947 19.4763 15.2614 20.1119 14.5076C20.7445 13.7573 21.115 12.7746 21.1161 11.8362C21.1366 11.1504 20.9063 10.4805 20.4682 9.95197L20.4617 9.94441C20.2024 9.65588 19.8823 9.42838 19.5245 9.27828ZM18.4262 11.1337C18.5169 11.1254 18.6083 11.1369 18.6941 11.1673C18.7737 11.1956 18.8467 11.2396 18.9088 11.2966C19.0159 11.4487 19.0688 11.6325 19.0586 11.8184L19.0582 11.8322C19.0582 12.225 18.9032 12.7116 18.6172 13.0971C18.3334 13.4797 17.9429 13.7356 17.4768 13.7356H12.777L13.3857 11.1347H18.4034H18.4148L18.4262 11.1337ZM31.22 23.4207H31.1474C31.1564 23.3497 31.1589 23.2779 31.1547 23.206C31.1432 23.0084 31.0817 22.817 30.9758 22.6498C30.8699 22.4826 30.7233 22.3451 30.5496 22.2501C30.3761 22.1552 30.1813 22.1059 29.9835 22.1068C29.7611 22.1072 29.5434 22.171 29.356 22.2908C29.1685 22.4108 29.0192 22.5818 28.9257 22.7837L26.8251 27.3088L25.44 24.8382C25.3549 24.6859 25.2363 24.5544 25.0933 24.4543C24.9504 24.3543 24.7868 24.2878 24.6146 24.2599C24.443 24.2312 24.2672 24.2412 24.1 24.2892C23.9326 24.3372 23.778 24.4221 23.6476 24.5376L20.9538 26.9286L21.3913 23.4192C21.4155 23.2669 21.4092 23.1112 21.3728 22.9613C21.336 22.8097 21.2692 22.6671 21.1763 22.5418C21.0834 22.4165 20.9664 22.3111 20.832 22.2318C20.6977 22.1525 20.5488 22.1009 20.3942 22.0801C20.2396 22.0592 20.0824 22.0695 19.9318 22.1104C19.7813 22.1513 19.6404 22.2219 19.5177 22.3181C19.3949 22.4143 19.2926 22.5341 19.2169 22.6705C19.1417 22.8061 19.0942 22.9553 19.0774 23.1094L18.2287 29.7253L18.2285 29.7267C18.1995 29.9635 18.2438 30.2035 18.3555 30.4144C18.4671 30.6253 18.6408 30.7968 18.853 30.906C19.0631 31.0131 19.3012 31.0556 19.5353 31.0274C19.7694 30.9992 19.9898 30.902 20.1685 30.7481L20.1712 30.7457L24.1112 27.2495L25.9145 30.4366C26.0161 30.6163 26.1635 30.7657 26.3418 30.8698C26.52 30.9739 26.7227 31.0289 26.9291 31.0293H26.9688L26.9744 31.0292C27.1883 31.0244 27.3968 30.9606 27.5767 30.8448C27.7566 30.7291 27.901 30.5658 27.9939 30.373L27.9954 30.3697L31.0552 23.7759L31.22 23.4207Z" fill="white"/>
<path fill-rule="evenodd" clip-rule="evenodd" d="M10.81 6.98828C9.39825 6.98828 7.64091 7.685 7.10251 9.93633C6.49888 12.4604 5.82997 15.3607 5.34255 17.474L5.17486 18.201C4.98276 19.0333 5.1452 19.686 5.45998 20.1098C5.76745 20.5238 6.30462 20.835 7.11527 20.835H7.98878C8.18083 20.835 8.32342 21.0129 8.28158 21.2003L8.09124 22.0529L7.83603 23.1959C7.77636 23.4632 8.0766 23.6641 8.30092 23.507L11.858 21.0159L12.0388 20.8892C12.0892 20.8539 12.1493 20.835 12.2109 20.835H12.4316H14.2329C14.3521 20.835 14.4594 20.7639 14.5108 20.6564C15.6034 18.3715 17.9658 17.2247 19.7813 17.2246H24.0602C24.1843 17.2246 24.2911 17.1368 24.3151 17.015C24.4377 16.3934 24.6059 15.5428 24.7882 14.6273C25.152 12.8003 25.5747 10.7022 25.8028 9.65515C25.9755 8.8618 25.8122 8.20347 25.4714 7.76022C25.1388 7.32773 24.5519 6.98828 23.6393 6.98828H23.6253H23.6113H23.5971H23.5828H23.5683H23.5537H23.5389H23.524H23.5089H23.4937H23.4784H23.4629H23.4473H23.4316H23.4157H23.3997H23.3835H23.3672H23.3508H23.3342H23.3175H23.3007H23.2837H23.2666H23.2494H23.232H23.2145H23.1969H23.1791H23.1612H23.1432H23.1251H23.1068H23.0884H23.0699H23.0513H23.0325H23.0136H22.9946H22.9755H22.9562H22.9368H22.9173H22.8977H22.878H22.8581H22.8381H22.818H22.7978H22.7775H22.7571H22.7365H22.7158H22.695H22.6741H22.6531H22.632H22.6107H22.5894H22.5679H22.5463H22.5247H22.5029H22.481H22.4589H22.4368H22.4146H22.3923H22.3698H22.3473H22.3247H22.3019H22.2791H22.2561H22.2331H22.2099H22.1866H22.1633H22.1398H22.1163H22.0926H22.0689H22.045H22.0211H21.997H21.9729H21.9487H21.9244H21.8999H21.8754H21.8508H21.8261H21.8014H21.7765H21.7515H21.7265H21.7013H21.6761H21.6508H21.6254H21.5999H21.5743H21.5486H21.5229H21.4971H21.4712H21.4452H21.4191H21.3929H21.3667H21.3404H21.314H21.2875H21.2609H21.2343H21.2076H21.1808H21.1539H21.127H21.1H21.0729H21.0457H21.0185H20.9912H20.9638H20.9364H20.9089H20.8813H20.8536H20.8259H20.7981H20.7702H20.7423H20.7143H20.6862H20.6581H20.6299H20.6016H20.5733H20.5449H20.5165H20.488H20.4594H20.4308H20.4021H20.3733H20.3445H20.3157H20.2867H20.2578H20.2287H20.1996H20.1705H20.1413H20.112H20.0827H20.0534H20.024H19.9945H19.965H19.9354H19.9058H19.8761H19.8464H19.8167H19.7869H19.757H19.7271H19.6972H19.6672H19.6371H19.6071H19.5769H19.5468H19.5166H19.4863H19.456H19.4257H19.3953H19.3649H19.3345H19.304H19.2735H19.2429H19.2123H19.1817H19.151H19.1204H19.0896H19.0589H19.0281H18.9972H18.9664H18.9355H18.9046H18.8736H18.8427H18.8117H18.7806H18.7496H18.7185H18.6874H18.6562H18.6251H18.5939H18.5627H18.5315H18.5002H18.469H18.4377H18.4063H18.375H18.3437H18.3123H18.2809H18.2495H18.2181H18.1866H18.1552H18.1237H18.0922H18.0607H18.0292H17.9977H17.9662H17.9346H17.9031H17.8715H17.8399H17.8083H17.7767H17.7451H17.7135H17.6819H17.6503H17.6187H17.587H17.5554H17.5238H17.4921H17.4605H17.4288H17.3972H17.3656H17.3339H17.3023H17.2706H17.239H17.2073H17.1757H17.1441H17.1124H17.0808H17.0492H17.0176H16.986H16.9544H16.9228H16.8912H16.8596H16.8281H16.7965H16.765H16.7334H16.7019H16.6704H16.6389H16.6075H16.576H16.5445H16.5131H16.4817H16.4503H16.4189H16.3875H16.3562H16.3249H16.2936H16.2623H16.231H16.1998H16.1685H16.1373H16.1062H16.075H16.0439H16.0128H15.9817H15.9507H15.9196H15.8887H15.8577H15.8268H15.7958H15.765H15.7341H15.7033H15.6725H15.6418H15.6111H15.5804H15.5497H15.5191H15.4885H15.458H15.4275H15.397H15.3666H15.3362H15.3058H15.2755H15.2452H15.215H15.1848H15.1547H15.1245H15.0945H15.0645H15.0345H15.0046H14.9747H14.9448H14.915H14.8853H14.8556H14.8259H14.7963H14.7668H14.7373H14.7078H14.6784H14.6491H14.6198H14.5906H14.5614H14.5323H14.5032H14.4742H14.4452H14.4163H14.3875H14.3587H14.3299H14.3013H14.2727H14.2441H14.2156H14.1872H14.1588H14.1305H14.1023H14.0741H14.046H14.018H13.99H13.9621H13.9342H13.9064H13.8787H13.8511H13.8235H13.796H13.7686H13.7412H13.714H13.6868H13.6596H13.6325H13.6056H13.5786H13.5518H13.525H13.4983H13.4717H13.4452H13.4188H13.3924H13.3661H13.3399H13.3137H13.2877H13.2617H13.2358H13.21H13.1843H13.1587H13.1331H13.1077H13.0823H13.057H13.0318H13.0067H12.9817H12.9567H12.9319H12.9071H12.8825H12.8579H12.8334H12.809H12.7847H12.7605H12.7364H12.7124H12.6885H12.6647H12.641H12.6173H12.5938H12.5704H12.5471H12.5238H12.5007H12.4777H12.4548H12.4319H12.4092H12.3866H12.3641H12.3417H12.3194H12.2972H12.2751H12.2532H12.2313H12.2095H12.1879H12.1663H12.1449H12.1236H12.1024H12.0813H12.0603H12.0394H12.0187H11.998H11.9775H11.9571H11.9368H11.9166H11.8966H11.8766H11.8568H11.8371H11.8175H11.7981H11.7787H11.7595H11.7404H11.7214H11.7026H11.6838H11.6652H11.6468H11.6284H11.6102H11.5921H11.5741H11.5563H11.5386H11.521H11.5035H11.4862H11.469H11.452H11.435H11.4182H11.4016H11.3851H11.3687H11.3524H11.3363H11.3203H11.3045H11.2888H11.2732H11.2578H11.2425H11.2273H11.2123H11.1974H11.1827H11.1681H11.1537H11.1394H11.1253H11.1113H11.0974H11.0837H11.0701H11.0567H11.0434H11.0303H11.0173H11.0045H10.9918H10.9793H10.9669H10.9547H10.9427H10.9307H10.919H10.9074H10.8959H10.8847H10.8735H10.8625H10.8517H10.8411H10.8306H10.8202H10.81ZM13.4802 22.835C13.6735 22.835 13.8164 23.0152 13.7722 23.2034C13.6588 23.6863 13.5422 24.1822 13.425 24.6808L13.4234 24.6876C12.979 26.5776 12.5258 28.5051 12.2077 29.9076C11.583 32.6623 13.7475 35.0065 16.0636 35.0065H16.0735H16.0837H16.094H16.1046H16.1153H16.1262H16.1372H16.1485H16.1599H16.1715H16.1833H16.1953H16.2074H16.2197H16.2322H16.2449H16.2577H16.2707H16.2839H16.2973H16.3108H16.3245H16.3384H16.3524H16.3666H16.381H16.3955H16.4102H16.4251H16.4401H16.4553H16.4707H16.4862H16.5019H16.5177H16.5337H16.5499H16.5662H16.5826H16.5993H16.6161H16.633H16.6501H16.6674H16.6848H16.7023H16.72H16.7379H16.7559H16.7741H16.7924H16.8108H16.8294H16.8482H16.8671H16.8861H16.9053H16.9246H16.9441H16.9637H16.9835H17.0034H17.0234H17.0436H17.0639H17.0844H17.105H17.1257H17.1466H17.1676H17.1887H17.21H17.2314H17.2529H17.2746H17.2964H17.3183H17.3404H17.3625H17.3849H17.4073H17.4299H17.4526H17.4754H17.4983H17.5214H17.5446H17.5679H17.5913H17.6149H17.6385H17.6623H17.6862H17.7103H17.7344H17.7587H17.783H17.8075H17.8321H17.8569H17.8817H17.9066H17.9317H17.9569H17.9821H18.0075H18.033H18.0586H18.0843H18.1101H18.136H18.1621H18.1882H18.2144H18.2407H18.2672H18.2937H18.3204H18.3471H18.3739H18.4009H18.4279H18.455H18.4822H18.5095H18.537H18.5645H18.5921H18.6198H18.6475H18.6754H18.7034H18.7314H18.7596H18.7878H18.8161H18.8445H18.873H18.9016H18.9302H18.959H18.9878H19.0167H19.0457H19.0748H19.1039H19.1332H19.1625H19.1919H19.2213H19.2509H19.2805H19.3102H19.3399H19.3698H19.3997H19.4297H19.4597H19.4898H19.52H19.5503H19.5806H19.611H19.6415H19.672H19.7026H19.7333H19.764H19.7948H19.8257H19.8566H19.8876H19.9186H19.9497H19.9809H20.0121H20.0433H20.0747H20.1061H20.1375H20.169H20.2005H20.2321H20.2638H20.2955H20.3273H20.3591H20.3909H20.4228H20.4548H20.4868H20.5188H20.5509H20.5831H20.6153H20.6475H20.6798H20.7121H20.7444H20.7768H20.8092H20.8417H20.8742H20.9068H20.9394H20.972H21.0047H21.0374H21.0701H21.1029H21.1357H21.1685H21.2013H21.2342H21.2672H21.3001H21.3331H21.3661H21.3991H21.4322H21.4653H21.4984H21.5315H21.5647H21.5979H21.6311H21.6643H21.6975H21.7308H21.7641H21.7974H21.8307H21.8641H21.8974H21.9308H21.9642H21.9976H22.031H22.0644H22.0978H22.1313H22.1647H22.1982H22.2317H22.2652H22.2987H22.3322H22.3657H22.3992H22.4327H22.4662H22.4997H22.5332H22.5668H22.6003H22.6338H22.6674H22.7009H22.7344H22.7679H22.8014H22.835H22.8685H22.902H22.9355H22.969H23.0024H23.0359H23.0694H23.1028H23.1363H23.1697H23.2031H23.2365H23.2699H23.3033H23.3367H23.37H23.4034H23.4367H23.47H23.5033H23.5365H23.5698H23.603H23.6362H23.6694H23.7025H23.7356H23.7687H23.8018H23.8349H23.8679H23.9009H23.9339H23.9668H23.9997H24.0326H24.0655H24.0983H24.1311H24.1638H24.1966H24.2292H24.2619H24.2945H24.3271H24.3596H24.3921H24.4246H24.457H24.4894H24.5218H24.5541H24.5863H24.6185H24.6507H24.6828H24.7149H24.747H24.7789H24.8109H24.8428H24.8746H24.9064H24.9382H24.9699H25.0015H25.0331H25.0646H25.0961H25.1275H25.1589H25.1902H25.2215H25.2527H25.2838H25.3149H25.3459H25.3769H25.4078H25.4386H25.4694H25.5001H25.5307H25.5613H25.5918H25.6223H25.6527H25.683H25.7132H25.7434H25.7735H25.8036H25.8335H25.8634H25.8932H25.923H25.9526H25.9822H26.0118H26.0412H26.0706H26.0999H26.1291H26.1582H26.1872H26.2162H26.2451H26.2739H26.3026H26.3313H26.3598H26.3883H26.4167H26.445H26.4732H26.5013H26.5293H26.5573H26.5851H26.6129H26.6405H26.6681H26.6956H26.723H26.7503H26.7775H26.8046H26.8316H26.8585H26.8853H26.912H26.9386H26.9651H26.9915H27.0178H27.044H27.0701H27.0961H27.122H27.1478H27.1735H27.1991H27.2245H27.2499H27.2751H27.3003H27.3253H27.3502H27.375H27.3997H27.4243H27.4487H27.4731H27.4973H27.5214H27.5454H27.5693H27.5931H27.6167H27.6402H27.6636H27.6869H27.71H27.7331H27.756H27.7788H27.8014H27.824H27.8464H27.8687H27.8908H27.9128H27.9347H27.9565H27.9781H27.9996H28.021H28.0422H28.0633H28.0843H28.1051H28.1258H28.1464H28.1668H28.1871H28.2072H28.2272H28.2471H28.2668H28.2864H28.3058H28.3251H28.3443H28.3633H28.3821H28.4008H28.4194H28.4378H28.4561H28.4742H28.4922H28.51H28.5277H28.5452H28.5626H28.5798H28.5968H28.6137H28.6305H28.6471H28.6635H28.6798H28.6959H28.7119H28.7277H28.7433H28.7588H28.7741H28.7892H28.8042H28.8191H28.8337H28.8482H28.8625H28.8767H28.8907H28.9045H28.9182H28.9316H28.9449H28.9581H28.9711H28.9838H28.9965H29.0089H29.0212H29.0333H29.0452H29.0569H29.0685H29.0799H29.0911H29.1021H29.113H29.1236H29.1341H29.1444H29.1545H29.1644H29.1742C31.22 35.0065 34.1146 33.4197 34.8381 30.3323C35.053 29.4154 35.2848 28.4235 35.518 27.4251L35.519 27.4211L35.5193 27.4195C35.9414 25.613 36.3684 23.7859 36.7089 22.3445C37.0307 20.9825 36.8027 19.692 36.0671 18.7243C35.6259 18.1437 35.0329 17.7206 34.348 17.4745C34.1982 17.4208 34.105 17.2666 34.1395 17.1113L34.6133 14.982C34.8924 13.7278 33.4761 12.7916 32.4315 13.5397L27.3654 17.1685C27.3144 17.205 27.2534 17.2246 27.1907 17.2246H26.6277C26.4643 17.2246 26.3417 17.0755 26.3733 16.9152C26.4815 16.3677 26.6115 15.7114 26.7497 15.0179C27.1145 13.186 27.5335 11.1069 27.7569 10.0808C28.0357 8.80091 27.8091 7.51941 27.0569 6.54112C26.2964 5.55207 25.0872 4.98828 23.6393 4.98828H23.6253H23.6113H23.5971H23.5828H23.5683H23.5537H23.5389H23.524H23.5089H23.4937H23.4784H23.4629H23.4473H23.4316H23.4157H23.3997H23.3835H23.3672H23.3508H23.3342H23.3175H23.3007H23.2837H23.2666H23.2494H23.232H23.2145H23.1969H23.1791H23.1612H23.1432H23.1251H23.1068H23.0884H23.0699H23.0513H23.0325H23.0136H22.9946H22.9755H22.9562H22.9368H22.9173H22.8977H22.878H22.8581H22.8381H22.818H22.7978H22.7775H22.7571H22.7365H22.7158H22.695H22.6741H22.6531H22.632H22.6107H22.5894H22.5679H22.5463H22.5247H22.5029H22.481H22.4589H22.4368H22.4146H22.3923H22.3698H22.3473H22.3247H22.3019H22.2791H22.2561H22.2331H22.2099H22.1866H22.1633H22.1398H22.1163H22.0926H22.0689H22.045H22.0211H21.997H21.9729H21.9487H21.9244H21.8999H21.8754H21.8508H21.8261H21.8014H21.7765H21.7515H21.7265H21.7013H21.6761H21.6508H21.6254H21.5999H21.5743H21.5486H21.5229H21.4971H21.4712H21.4452H21.4191H21.3929H21.3667H21.3404H21.314H21.2875H21.2609H21.2343H21.2076H21.1808H21.1539H21.127H21.1H21.0729H21.0457H21.0185H20.9912H20.9638H20.9364H20.9089H20.8813H20.8536H20.8259H20.7981H20.7702H20.7423H20.7143H20.6862H20.6581H20.6299H20.6016H20.5733H20.5449H20.5165H20.488H20.4594H20.4308H20.4021H20.3733H20.3445H20.3157H20.2867H20.2578H20.2287H20.1996H20.1705H20.1413H20.112H20.0827H20.0534H20.024H19.9945H19.965H19.9354H19.9058H19.8761H19.8464H19.8167H19.7869H19.757H19.7271H19.6972H19.6672H19.6371H19.6071H19.5769H19.5468H19.5166H19.4863H19.456H19.4257H19.3953H19.3649H19.3345H19.304H19.2735H19.2429H19.2123H19.1817H19.151H19.1204H19.0896H19.0589H19.0281H18.9972H18.9664H18.9355H18.9046H18.8736H18.8427H18.8117H18.7806H18.7496H18.7185H18.6874H18.6562H18.6251H18.5939H18.5627H18.5315H18.5002H18.469H18.4377H18.4063H18.375H18.3437H18.3123H18.2809H18.2495H18.2181H18.1866H18.1552H18.1237H18.0922H18.0607H18.0292H17.9977H17.9662H17.9346H17.9031H17.8715H17.8399H17.8083H17.7767H17.7451H17.7135H17.6819H17.6503H17.6187H17.587H17.5554H17.5238H17.4921H17.4605H17.4288H17.3972H17.3656H17.3339H17.3023H17.2706H17.239H17.2073H17.1757H17.1441H17.1124H17.0808H17.0492H17.0176H16.986H16.9544H16.9228H16.8912H16.8596H16.8281H16.7965H16.765H16.7334H16.7019H16.6704H16.6389H16.6075H16.576H16.5445H16.5131H16.4817H16.4503H16.4189H16.3875H16.3562H16.3249H16.2936H16.2623H16.231H16.1998H16.1685H16.1373H16.1062H16.075H16.0439H16.0128H15.9817H15.9507H15.9196H15.8887H15.8577H15.8268H15.7958H15.765H15.7341H15.7033H15.6725H15.6418H15.6111H15.5804H15.5497H15.5191H15.4885H15.458H15.4275H15.397H15.3666H15.3362H15.3058H15.2755H15.2452H15.215H15.1848H15.1547H15.1245H15.0945H15.0645H15.0345H15.0046H14.9747H14.9448H14.915H14.8853H14.8556H14.8259H14.7963H14.7668H14.7373H14.7078H14.6784H14.6491H14.6198H14.5906H14.5614H14.5323H14.5032H14.4742H14.4452H14.4163H14.3875H14.3587H14.3299H14.3013H14.2727H14.2441H14.2156H14.1872H14.1588H14.1305H14.1023H14.0741H14.046H14.018H13.99H13.9621H13.9342H13.9064H13.8787H13.8511H13.8235H13.796H13.7686H13.7412H13.714H13.6868H13.6596H13.6325H13.6056H13.5786H13.5518H13.525H13.4983H13.4717H13.4452H13.4188H13.3924H13.3661H13.3399H13.3137H13.2877H13.2617H13.2358H13.21H13.1843H13.1587H13.1331H13.1077H13.0823H13.057H13.0318H13.0067H12.9817H12.9567H12.9319H12.9071H12.8825H12.8579H12.8334H12.809H12.7847H12.7605H12.7364H12.7124H12.6885H12.6647H12.641H12.6173H12.5938H12.5704H12.5471H12.5238H12.5007H12.4777H12.4548H12.4319H12.4092H12.3866H12.3641H12.3417H12.3194H12.2972H12.2751H12.2532H12.2313H12.2095H12.1879H12.1663H12.1449H12.1236H12.1024H12.0813H12.0603H12.0394H12.0187H11.998H11.9775H11.9571H11.9368H11.9166H11.8966H11.8766H11.8568H11.8371H11.8175H11.7981H11.7787H11.7595H11.7404H11.7214H11.7026H11.6838H11.6652H11.6468H11.6284H11.6102H11.5921H11.5741H11.5563H11.5386H11.521H11.5035H11.4862H11.469H11.452H11.435H11.4182H11.4016H11.3851H11.3687H11.3524H11.3363H11.3203H11.3045H11.2888H11.2732H11.2578H11.2425H11.2273H11.2123H11.1974H11.1827H11.1681H11.1537H11.1394H11.1253H11.1113H11.0974H11.0837H11.0701H11.0567H11.0434H11.0303H11.0173H11.0045H10.9918H10.9793H10.9669H10.9547H10.9427H10.9307H10.919H10.9074H10.8959H10.8847H10.8735H10.8625H10.8517H10.8411H10.8306H10.8202H10.81C8.77342 4.98828 5.97382 6.05711 5.15736 9.47114C4.5517 12.0037 3.88086 14.9124 3.39366 17.0248L3.22609 17.7512C2.92549 19.0536 3.13253 20.3304 3.85436 21.3023C4.30043 21.9029 4.91021 22.3422 5.62901 22.5929C5.78034 22.6456 5.87503 22.8007 5.84011 22.9571L5.37862 25.0242C5.10014 26.2715 6.50126 27.2091 7.54809 26.476L12.6695 22.8892C12.7199 22.8539 12.78 22.835 12.8416 22.835H13.4802ZM27.6082 19.2244L27.6071 19.2246H27.6038H27.5907H27.5393H27.3426H26.6276H24.3411H19.7814C18.4511 19.2247 16.5101 20.2755 16.0279 22.3419C15.8222 23.2236 15.5957 24.1871 15.3674 25.1579C14.9243 27.0424 14.4745 28.955 14.1582 30.3499C13.8226 31.83 15.0065 33.0065 16.0636 33.0065H16.0735H16.0837H16.094H16.1046H16.1153H16.1262H16.1372H16.1485H16.1599H16.1715H16.1833H16.1953H16.2074H16.2197H16.2322H16.2449H16.2577H16.2707H16.2839H16.2973H16.3108H16.3245H16.3384H16.3524H16.3666H16.381H16.3955H16.4102H16.4251H16.4401H16.4553H16.4707H16.4862H16.5019H16.5177H16.5337H16.5499H16.5662H16.5826H16.5993H16.6161H16.633H16.6501H16.6674H16.6848H16.7023H16.72H16.7379H16.7559H16.7741H16.7924H16.8108H16.8294H16.8482H16.8671H16.8861H16.9053H16.9246H16.9441H16.9637H16.9835H17.0034H17.0234H17.0436H17.0639H17.0844H17.105H17.1257H17.1466H17.1676H17.1887H17.21H17.2314H17.2529H17.2746H17.2964H17.3183H17.3404H17.3625H17.3849H17.4073H17.4299H17.4526H17.4754H17.4983H17.5214H17.5446H17.5679H17.5913H17.6149H17.6385H17.6623H17.6862H17.7103H17.7344H17.7587H17.783H17.8075H17.8321H17.8569H17.8817H17.9066H17.9317H17.9569H17.9821H18.0075H18.033H18.0586H18.0843H18.1101H18.136H18.1621H18.1882H18.2144H18.2407H18.2672H18.2937H18.3204H18.3471H18.3739H18.4009H18.4279H18.455H18.4822H18.5095H18.537H18.5645H18.5921H18.6198H18.6475H18.6754H18.7034H18.7314H18.7596H18.7878H18.8161H18.8445H18.873H18.9016H18.9302H18.959H18.9878H19.0167H19.0457H19.0748H19.1039H19.1332H19.1625H19.1919H19.2213H19.2509H19.2805H19.3102H19.3399H19.3698H19.3997H19.4297H19.4597H19.4898H19.52H19.5503H19.5806H19.611H19.6415H19.672H19.7026H19.7333H19.764H19.7948H19.8257H19.8566H19.8876H19.9186H19.9497H19.9809H20.0121H20.0433H20.0747H20.1061H20.1375H20.169H20.2005H20.2321H20.2638H20.2955H20.3273H20.3591H20.3909H20.4228H20.4548H20.4868H20.5188H20.5509H20.5831H20.6153H20.6475H20.6798H20.7121H20.7444H20.7768H20.8092H20.8417H20.8742H20.9068H20.9394H20.972H21.0047H21.0374H21.0701H21.1029H21.1357H21.1685H21.2013H21.2342H21.2672H21.3001H21.3331H21.3661H21.3991H21.4322H21.4653H21.4984H21.5315H21.5647H21.5979H21.6311H21.6643H21.6975H21.7308H21.7641H21.7974H21.8307H21.8641H21.8974H21.9308H21.9642H21.9976H22.031H22.0644H22.0978H22.1313H22.1647H22.1982H22.2317H22.2652H22.2987H22.3322H22.3657H22.3992H22.4327H22.4662H22.4997H22.5332H22.5668H22.6003H22.6338H22.6674H22.7009H22.7344H22.7679H22.8014H22.835H22.8685H22.902H22.9355H22.969H23.0024H23.0359H23.0694H23.1028H23.1363H23.1697H23.2031H23.2365H23.2699H23.3033H23.3367H23.37H23.4034H23.4367H23.47H23.5033H23.5365H23.5698H23.603H23.6362H23.6694H23.7025H23.7356H23.7687H23.8018H23.8349H23.8679H23.9009H23.9339H23.9668H23.9997H24.0326H24.0655H24.0983H24.1311H24.1638H24.1966H24.2292H24.2619H24.2945H24.3271H24.3596H24.3921H24.4246H24.457H24.4894H24.5218H24.5541H24.5863H24.6185H24.6507H24.6828H24.7149H24.747H24.7789H24.8109H24.8428H24.8746H24.9064H24.9382H24.9699H25.0015H25.0331H25.0646H25.0961H25.1275H25.1589H25.1902H25.2215H25.2527H25.2838H25.3149H25.3459H25.3769H25.4078H25.4386H25.4694H25.5001H25.5307H25.5613H25.5918H25.6223H25.6527H25.683H25.7132H25.7434H25.7735H25.8036H25.8335H25.8634H25.8932H25.923H25.9526H25.9822H26.0118H26.0412H26.0706H26.0999H26.1291H26.1582H26.1872H26.2162H26.2451H26.2739H26.3026H26.3313H26.3598H26.3883H26.4167H26.445H26.4732H26.5013H26.5293H26.5573H26.5851H26.6129H26.6405H26.6681H26.6956H26.723H26.7503H26.7775H26.8046H26.8316H26.8585H26.8853H26.912H26.9386H26.9651H26.9915H27.0178H27.044H27.0701H27.0961H27.122H27.1478H27.1735H27.1991H27.2245H27.2499H27.2751H27.3003H27.3253H27.3502H27.375H27.3997H27.4243H27.4487H27.4731H27.4973H27.5214H27.5454H27.5693H27.5931H27.6167H27.6402H27.6636H27.6869H27.71H27.7331H27.756H27.7788H27.8014H27.824H27.8464H27.8687H27.8908H27.9128H27.9347H27.9565H27.9781H27.9996H28.021H28.0422H28.0633H28.0843H28.1051H28.1258H28.1464H28.1668H28.1871H28.2072H28.2272H28.2471H28.2668H28.2864H28.3058H28.3251H28.3443H28.3633H28.3821H28.4008H28.4194H28.4378H28.4561H28.4742H28.4922H28.51H28.5277H28.5452H28.5626H28.5798H28.5968H28.6137H28.6305H28.6471H28.6635H28.6798H28.6959H28.7119H28.7277H28.7433H28.7588H28.7741H28.7892H28.8042H28.8191H28.8337H28.8482H28.8625H28.8767H28.8907H28.9045H28.9182H28.9316H28.9449H28.9581H28.9711H28.9838H28.9965H29.0089H29.0212H29.0333H29.0452H29.0569H29.0685H29.0799H29.0911H29.1021H29.113H29.1236H29.1341H29.1444H29.1545H29.1644H29.1742C30.4217 33.0065 32.4077 31.9379 32.8909 29.8759C33.1038 28.9674 33.3338 27.9831 33.5655 26.9912L33.567 26.985L33.5696 26.9739C33.9925 25.1638 34.4211 23.3296 34.7625 21.8846C34.97 21.0061 34.7918 20.3516 34.4748 19.9345C34.1588 19.5187 33.6194 19.2246 32.8673 19.2246H31.9945C31.8025 19.2246 31.6599 19.0468 31.7016 18.8594L31.8912 18.0074L32.1497 16.8456C32.2095 16.5769 31.906 16.3763 31.6822 16.5366L28.1905 19.0376L27.9929 19.1791C27.9516 19.2087 27.9021 19.2246 27.8513 19.2246C27.7171 19.2246 27.6082 19.1158 27.6082 18.9815V18.2246V19.2244ZM19.5245 9.27828C19.1684 9.1289 18.7837 9.05986 18.3979 9.07604H12.6407C12.3872 9.07591 12.1411 9.16162 11.9426 9.31922C11.7441 9.47685 11.6049 9.69711 11.5479 9.94404L9.71185 17.8995C9.67824 18.0428 9.67307 18.1918 9.69692 18.337C9.72079 18.4824 9.77314 18.6217 9.85097 18.7469C9.92879 18.872 10.0306 18.9806 10.1504 19.0663C10.2703 19.1521 10.4059 19.2134 10.5495 19.2467L10.552 19.2473C10.6347 19.2656 10.719 19.2748 10.8036 19.275C11.0576 19.2761 11.3043 19.1907 11.5032 19.0328C11.702 18.875 11.841 18.6541 11.8972 18.4066L12.5052 15.7947H17.4767C18.5631 15.7947 19.4763 15.2614 20.1119 14.5076C20.7445 13.7573 21.115 12.7746 21.1161 11.8362C21.1366 11.1504 20.9063 10.4805 20.4682 9.95197L20.4617 9.94441C20.2024 9.65588 19.8823 9.42838 19.5245 9.27828ZM18.4262 11.1337C18.5169 11.1254 18.6083 11.1369 18.6941 11.1673C18.7737 11.1956 18.8467 11.2396 18.9088 11.2966C19.0159 11.4487 19.0688 11.6325 19.0586 11.8184L19.0582 11.8322C19.0582 12.225 18.9032 12.7116 18.6172 13.0971C18.3334 13.4797 17.9429 13.7356 17.4768 13.7356H12.777L13.3857 11.1347H18.4034H18.4148L18.4262 11.1337ZM31.22 23.4207H31.1474C31.1564 23.3497 31.1589 23.2779 31.1547 23.206C31.1432 23.0084 31.0817 22.817 30.9758 22.6498C30.8699 22.4826 30.7233 22.3451 30.5496 22.2501C30.3761 22.1552 30.1813 22.1059 29.9835 22.1068C29.7611 22.1072 29.5434 22.171 29.356 22.2908C29.1685 22.4108 29.0192 22.5818 28.9257 22.7837L26.8251 27.3088L25.44 24.8382C25.3549 24.6859 25.2363 24.5544 25.0933 24.4543C24.9504 24.3543 24.7868 24.2878 24.6146 24.2599C24.443 24.2312 24.2672 24.2412 24.1 24.2892C23.9326 24.3372 23.778 24.4221 23.6476 24.5376L20.9538 26.9286L21.3913 23.4192C21.4155 23.2669 21.4092 23.1112 21.3728 22.9613C21.336 22.8097 21.2692 22.6671 21.1763 22.5418C21.0834 22.4165 20.9664 22.3111 20.832 22.2318C20.6977 22.1525 20.5488 22.1009 20.3942 22.0801C20.2396 22.0592 20.0824 22.0695 19.9318 22.1104C19.7813 22.1513 19.6404 22.2219 19.5177 22.3181C19.3949 22.4143 19.2926 22.5341 19.2169 22.6705C19.1417 22.8061 19.0942 22.9553 19.0774 23.1094L18.2287 29.7253L18.2285 29.7267C18.1995 29.9635 18.2438 30.2035 18.3555 30.4144C18.4671 30.6253 18.6408 30.7968 18.853 30.906C19.0631 31.0131 19.3012 31.0556 19.5353 31.0274C19.7694 30.9992 19.9898 30.902 20.1685 30.7481L20.1712 30.7457L24.1112 27.2495L25.9145 30.4366C26.0161 30.6163 26.1635 30.7657 26.3418 30.8698C26.52 30.9739 26.7227 31.0289 26.9291 31.0293H26.9688L26.9744 31.0292C27.1883 31.0244 27.3968 30.9606 27.5767 30.8448C27.7566 30.7291 27.901 30.5658 27.9939 30.373L27.9954 30.3697L31.0552 23.7759L31.22 23.4207Z" fill="url(#paint0_linear_2914_4167)"/>
<defs>
<linearGradient id="paint0_linear_2914_4167" x1="36.8509" y1="13.9094" x2="14.9588" y2="37.1786" gradientUnits="userSpaceOnUse">
<stop stop-color="#F700FF"/>
<stop offset="1" stop-color="#FFC800"/>
</linearGradient>
</defs>
</svg>
